#!OML:ASF F:\VICON\USERDATA\INSTALL\rory3\rory3.ASF
:FULLY-SPECIFIED
:DEGREES
729
root 5.59829 17.9607 3.37349 10.3271 30.9742 -0.165002
lowerback -8.9643 0.703522 1.88776
upperback -2.34328 0.79144 -0.20932
thorax 2.6232 0.410932 -1.18991
lowerneck -17.8188 1.5525 4.58544
upperneck 22.1061 1.84592 -3.71338
head 10.0642 0.826202 -1.81713
rclavicle 4.64675e-014 -1.17283e-014
rhumerus -28.6844 15.3621 -94.0689
rradius 42.0377
rwrist -1.50679
rhand -20.3061 10.5121
rfingers 7.12502
rthumb 6.04429 -19.3817
lclavicle 4.64675e-014 -1.17283e-014
lhumerus -43.8682 -12.4344 88.6115
lradius 33.8141
lwrist 11.9302
lhand -7.58899 25.7586
lfingers 7.12502
lthumb 18.3043 54.9174
rfemur 0.745639 -3.35127 22.2033
rtibia 16.7068
rfoot -19.1743 9.81241
rtoes -5.66631
lfemur -38.2523 13.0048 -26.9783
ltibia 23.4405
lfoot -13.6609 -4.45667
ltoes -22.934
730
root 5.68692 17.9343 3.49243 9.91145 30.7682 -0.550002
lowerback -8.90761 0.729428 2.09261
upperback -2.26871 0.804027 -0.115285
thorax 2.67073 0.41866 -1.20657
lowerneck -17.8727 1.58777 4.63524
upperneck 22.0989 1.89528 -3.78306
head 10.0753 0.84412 -1.84324
rclavicle -2.4786e-014 2.23633e-015
rhumerus -28.8258 15.1268 -94.0042
rradius 41.6415
rwrist -1.35191
rhand -20.2565 10.6257
rfingers 7.12502
rthumb 6.09217 -19.2667
lclavicle -2.4786e-014 2.23633e-015
lhumerus -43.7668 -12.5278 88.6579
lradius 33.7253
lwrist 12.0735
lhand -7.68042 25.858
lfingers 7.12502
lthumb 18.2163 55.0251
rfemur 1.4031 -3.11629 22.4465
rtibia 16.8799
rfoot -19.1188 10.0805
rtoes -5.79594
lfemur -37.8176 12.513 -26.2736
ltibia 23.9905
lfoot -13.3158 -3.60282
ltoes -23.5645
731
root 5.78137 17.9198 3.60846 10.1818 30.5555 0.0371294
lowerback -8.98998 0.643747 1.51059
upperback -2.29146 0.746837 -0.278876
thorax 2.68601 0.387623 -1.05412
lowerneck -17.8554 1.67305 4.77366
upperneck 22.1263 1.99543 -3.85896
head 10.0891 0.893345 -1.87974
rclavicle -1.52195e-014 5.86415e-015
rhumerus -29.0637 15.0692 -94.0965
rradius 41.2695
rwrist -1.29527
rhand -20.4197 10.5337
rfingers 7.12502
rthumb 5.93463 -19.3632
lclavicle -1.52195e-014 5.86415e-015
lhumerus -43.7874 -12.4565 88.5819
lradius 33.719
lwrist 12.0357
lhand -7.66559 25.7472
lfingers 7.12502
lthumb 18.2306 54.9129
rfemur 1.999 -3.05088 21.7383
rtibia 16.8048
rfoot -18.8126 10.4091
rtoes -5.07234
lfemur -37.7248 12.1637 -26.7471
ltibia 24.761
lfoot -12.4128 -2.87385
ltoes -25.3539
732
root 5.88006 17.9165 3.72392 10.2777 30.3725 -0.105466
lowerback -9.30572 0.606884 1.63409
upperback -2.36882 0.682831 -0.283405
thorax 2.78001 0.35705 -1.13319
lowerneck -17.7437 1.77323 4.84718
upperneck 22.0956 2.11745 -3.85246
head 10.0641 0.957608 -1.8726
rclavicle -4.68945e-014 1.20513e-014
rhumerus -29.2813 15.0825 -94.2057
rradius 40.7771
rwrist -1.24979
rhand -20.4739 10.4595
rfingers 7.12502
rthumb 5.88234 -19.4389
lclavicle -4.68945e-014 1.20513e-014
lhumerus -43.8101 -12.2637 88.4666
lradius 33.6778
lwrist 12.0609
lhand -7.7347 25.601
lfingers 7.12502
lthumb 18.1641 54.7729
rfemur 2.34943 -3.06676 21.7137
rtibia 16.7743
rfoot -18.7119 10.2842
rtoes -6.03413
lfemur -37.8891 11.9419 -26.5995
ltibia 25.524
lfoot -10.4856 -2.04859
ltoes -26.3265
733
root 5.97451 17.9204 3.84536 10.1599 30.0379 -0.415853
lowerback -9.53571 0.673324 1.81937
upperback -2.39889 0.7489 -0.257284
thorax 2.87993 0.391642 -1.20076
lowerneck -17.6453 1.8179 4.91526
upperneck 22.06 2.15827 -3.82933
head 10.0356 0.985767 -1.86997
rclavicle -3.43932e-014 -2.96935e-015
rhumerus -29.4969 14.8218 -94.2194
rradius 40.2182
rwrist -1.11143
rhand -20.4996 10.5305
rfingers 7.12502
rthumb 5.85752 -19.3686
lclavicle -3.43932e-014 -2.96935e-015
lhumerus -43.8087 -12.1933 88.3936
lradius 33.612
lwrist 12.0739
lhand -7.89166 25.6425
lfingers 7.12502
lthumb 18.0131 54.8284
rfemur 2.75039 -2.78689 21.8671
rtibia 16.8803
rfoot -18.8094 9.88294
rtoes -7.22547
lfemur -37.8869 11.7535 -26.076
ltibia 26.2336
lfoot -8.79456 -1.44594
ltoes -26.6405
734
root 6.05626 17.924 3.95955 10.3506 29.6131 0.312292
lowerback -9.33587 0.639027 0.984554
upperback -2.39499 0.793374 -0.490723
thorax 2.7678 0.40886 -0.969272
lowerneck -17.6715 1.88733 5.12709
upperneck 22.0389 2.20171 -3.86961
head 10.0385 1.01831 -1.91348
rclavicle 8.04371e-014 2.91965e-015
rhumerus -29.6488 14.3954 -94.2622
rradius 39.5899
rwrist -0.862318
rhand -20.496 10.5455
rfingers 7.12502
rthumb 5.86095 -19.3535
lclavicle 8.04371e-014 2.91965e-015
lhumerus -43.7266 -12.3276 88.3489
lradius 33.4138
lwrist 11.9859
lhand -8.28841 25.6478
lfingers 7.12502
lthumb 17.6313 54.8684
rfemur 3.35497 -2.3189 21.0879
rtibia 16.9281
rfoot -18.3225 9.54332
rtoes -7.60071
lfemur -37.7214 11.4695 -26.4023
ltibia 27.0277
lfoot -7.96381 -1.24864
ltoes -26.9423
